<?xml version="1.0" encoding="UTF-8"?>
<svg xmlns="http://www.w3.org/2000/svg" version="1.1" viewBox="0 0 332.88 85.32">
  <path fill="#2D2D48" d="M113.3 21.18c6.54.16 11.47 2 14.78 5.51 3.32 3.52 4.97 8.85 4.97 16s-1.65 12.48-4.97 16c-3.31 3.5-8.24 5.35-14.79 5.5H98.41v-43h14.88zm-2.06 39.52c3.1 0 5.76-.33 7.99-1a12.77 12.77 0 0 0 5.5-3.15 13.02 13.02 0 0 0 3.2-5.6 29.15 29.15 0 0 0 1.02-8.26c0-3.21-.34-5.96-1.02-8.25a13.04 13.04 0 0 0-3.2-5.6 12.78 12.78 0 0 0-5.5-3.17c-2.23-.66-4.9-1-7.99-1h-8.73V60.7h8.73zm27.3-39.52 9.75 37.66h.12l10.49-37.66h5.12l10.54 37.66h.12l9.82-37.66h4.1L176.73 64.2h-4.34l-10.9-38.5h-.12l-10.85 38.5h-4.46l-11.92-43.02h4.4zm52.35 13.02c.84-2.7 2.1-5.08 3.8-7.14a18.3 18.3 0 0 1 6.35-4.94 20.3 20.3 0 0 1 8.88-1.84c3.38 0 6.33.61 8.86 1.84a18.37 18.37 0 0 1 6.32 4.94 21.2 21.2 0 0 1 3.8 7.14 28.32 28.32 0 0 1 1.27 8.49c0 2.97-.43 5.8-1.27 8.5a20.88 20.88 0 0 1-3.8 7.1 18.5 18.5 0 0 1-6.32 4.91 20.1 20.1 0 0 1-8.86 1.84c-3.37 0-6.33-.61-8.88-1.84a18.42 18.42 0 0 1-6.36-4.9 20.87 20.87 0 0 1-3.8-7.12 28.21 28.21 0 0 1-1.26-8.5c0-2.96.42-5.8 1.27-8.48zm3.76 15.39a18.3 18.3 0 0 0 2.9 6.08 14.55 14.55 0 0 0 5.02 4.31 15.53 15.53 0 0 0 7.35 1.63c2.86 0 5.3-.55 7.32-1.63a14.62 14.62 0 0 0 5-4.3 18.51 18.51 0 0 0 2.9-6.1 25.97 25.97 0 0 0 .93-6.9c0-2.36-.31-4.67-.93-6.92a18.55 18.55 0 0 0-2.9-6.05 14.65 14.65 0 0 0-5-4.31 15.33 15.33 0 0 0-7.32-1.63c-2.85 0-5.3.55-7.35 1.63a14.55 14.55 0 0 0-5.03 4.3 18.55 18.55 0 0 0-2.89 6.06 25.79 25.79 0 0 0-.93 6.93c0 2.33.3 4.63.93 6.9zm44.8-28.4V60.7h24.09v3.5h-28.2V21.18h4.1zm32.34 0V60.7h24.1v3.5h-28.2V21.18h4.1z"/>
  <path fill="#2D2D48" d="m316.01 21.18 16.87 43.02h-4.4l-5.24-13.38h-19.58l-5.18 13.38h-4.34l17.3-43.02H316zm5.85 26.15-8.32-22.05-8.61 22.05h16.93z"/>
  <linearGradient id="a" x1="2.48" x2="73.97" y1="77.79" y2="6.31" gradientUnits="userSpaceOnUse">
    <stop offset="0" stop-color="#f3904a"/>
    <stop offset="1" stop-color="#aa437f"/>
  </linearGradient>
  <path fill="url(#a)" d="M72.73 19.5 40.12.67a5 5 0 0 0-5 0L2.5 19.5A5 5 0 0 0 0 23.83V61.5a5 5 0 0 0 2.5 4.33l32.61 18.83a5 5 0 0 0 5 0l32.61-18.83a5 5 0 0 0 2.5-4.33V23.83a5 5 0 0 0-2.5-4.33zm-56.5 13.75V55L5.02 61.48V23.84L37.6 5.01v13l-18.87 10.9a5 5 0 0 0-2.5 4.34zm18.88 5.07a5 5 0 0 0-2.5 4.34v21.68L21.25 70.9V33.25l32.6-18.83V27.5L35.11 38.32zm35.11 23.16-32.6 18.83V42.66l32.6-18.83V61.5z"/>
</svg>