<?xml version="1.0" encoding="utf-8"?>
<!-- Generator: Adobe Illustrator 19.2.1, SVG Export Plug-In . SVG Version: 6.00 Build 0)  -->
<svg version="1.1" id="layer" xmlns="http://www.w3.org/2000/svg" xmlns:xlink="http://www.w3.org/1999/xlink" x="0px" y="0px"
	 viewBox="0 0 652 652" style="enable-background:new 0 0 652 652;" xml:space="preserve">
<style type="text/css">
	.st0{fill:#ffffff;}
	.st1{filter:url(#Adobe_OpacityMaskFilter);}
	.st2{fill:#FFFFFF;}
	.st3{mask:url(#b_1_);fill:#ffffff;}
</style>
<g>
	<path class="st0" d="M336.5,285.2c-5-4.2-13.6-6.3-25.8-6.3h-27.4v84.7h20.5V337h9.2c11.1,0,19.3-2.5,24.5-7.4
		c5.9-5.5,8.8-12.8,8.8-22C346.3,298.2,343,290.7,336.5,285.2 M312.4,317.8h-8.7V298h7.8c9.5,0,14.2,3.3,14.2,10
		C325.8,314.5,321.3,317.8,312.4,317.8 M381.3,278.8H360v84.7h46.1v-19.2h-24.8V278.8z M448,278.8l-33.6,84.7h23l4.4-12.3H471
		l4,12.3h23.3L465,278.8H448z M447.7,334.1l8.8-29l8.7,29H447.7L447.7,334.1z"/>
	<defs>
		<filter id="Adobe_OpacityMaskFilter" filterUnits="userSpaceOnUse" x="21" y="207.7" width="600" height="226.1">
			<feColorMatrix  type="matrix" values="1 0 0 0 0  0 1 0 0 0  0 0 1 0 0  0 0 0 1 0"/>
		</filter>
	</defs>
	<mask maskUnits="userSpaceOnUse" x="21" y="207.7" width="600" height="226.1" id="b_1_">
		<g class="st1">
			<path id="a_1_" class="st2" d="M21,433.8h600V207.7H21V433.8z"/>
		</g>
	</mask>
	<path class="st3" d="M509,363.5h21.4v-84.7H509V363.5z M613.3,294.7c-2.7-3.9-6.2-7.2-10.2-9.8c-6.5-4.1-15.3-6.1-26.4-6.1h-28.2
		v84.7h32.9c11.9,0,21.5-3.9,28.7-11.7c7.2-7.8,10.8-18.1,10.8-31C621,310.6,618.4,301.9,613.3,294.7 M579.1,344.3H570V298h9.3
		c6.5,0,11.6,2,15.1,6.1c3.5,4.1,5.3,9.9,5.3,17.4C599.6,336.7,592.8,344.3,579.1,344.3 M109.7,207.7l-69.3,18.1l-19.1,69.7
		L45.3,320L21,344.1l18,70l69,19.3l24.3-24.1l23.9,24.5l69.3-18.1l19.1-69.7l-23.9-24.5l24.3-24.1l-18-70l-69-19.3l-24.3,24.1
		L109.7,207.7z M67.2,239.2l36.5-9.6l16,16.4l-23.3,23.1L67.2,239.2z M147.3,246.3l16.2-16.1l36.3,10.2l-29.7,29.5
		C170.2,269.8,147.3,246.3,147.3,246.3z M43.2,289.8l10.1-36.7L82.5,283l-23.3,23.1L43.2,289.8L43.2,289.8z M183.9,283.9l29.7-29.5
		l9.5,36.9l-16.2,16.1C206.8,307.4,183.9,283.9,183.9,283.9z M110.1,283.3l23.3-23.1l22.9,23.5L133,306.8L110.1,283.3z M72.9,320.2
		l23.3-23.1l22.9,23.5l-23.3,23.1C95.8,343.7,72.9,320.2,72.9,320.2z M146.7,320.8l23.3-23.1l22.9,23.5l-23.3,23.1
		C169.6,344.4,146.7,320.8,146.7,320.8z M42.8,350.2L59,334.1l22.9,23.5l-29.6,29.5C52.2,387.1,42.8,350.2,42.8,350.2z M109.5,357.8
		l23.3-23.1l22.9,23.5l-23.3,23.1C132.4,381.3,109.5,357.8,109.5,357.8z M183.3,358.4l23.3-23.1l16,16.4l-10,36.7
		C212.5,388.4,183.3,358.4,183.3,358.4z M65.9,401.1l29.6-29.5l22.9,23.5l-16.2,16.1L65.9,401.1L65.9,401.1z M146.1,395.4l23.3-23.1
		l29.2,29.9l-36.5,9.6C162.1,411.8,146.1,395.4,146.1,395.4z"/>
</g>
</svg>
